<svg width="331" height="111" viewBox="0 0 331 111" fill="none" xmlns="http://www.w3.org/2000/svg">
<path d="M0.476774 106L2.29218 105.267V93.3472L0.476774 92.6137H5.35454L3.17238 93.3472V98.5183H10.9291V93.3472L8.74697 92.6137H13.6247L11.8093 93.3472V105.267L13.6247 106H8.74697L10.9291 105.267V98.8484H3.17238V105.267L5.35454 106H0.476774ZM19.1545 106.22C16.8073 106.22 14.7535 104.038 14.7535 101.361C14.7535 98.775 16.8073 96.6662 19.1545 96.6662C21.4833 96.6662 23.5371 98.775 23.5371 101.361C23.5371 104.038 21.4833 106.22 19.1545 106.22ZM19.1545 105.927C21.0982 105.927 22.6019 104.093 22.6019 101.361C22.6019 98.7934 21.1716 96.9413 19.1545 96.9413C17.1924 96.9413 15.6887 98.72 15.6887 101.361C15.6887 104.001 17.119 105.927 19.1545 105.927ZM28.265 106.22C26.9998 106.22 26.1012 105.468 26.1379 104.075L26.3029 97.6014H24.3958L26.1379 96.3545V95.1076L26.9631 94.5574V97.0146H30.2822V97.6014H26.9631V103.946C26.9631 105.065 27.6782 105.633 28.5768 105.633C29.5303 105.633 30.3372 105.211 30.9423 104.441C30.2088 105.597 29.3103 106.22 28.265 106.22ZM35.6956 106.22C33.2384 106.22 31.533 104.405 31.533 101.526C31.533 98.665 33.2934 96.6662 35.6406 96.6662C37.621 96.6662 38.9596 98.0599 38.9596 100.15V100.26H32.4682C32.4132 100.59 32.3765 100.957 32.3765 101.324C32.3765 103.855 33.7335 105.597 35.8606 105.597C37.401 105.597 38.5746 104.68 39.143 102.938C38.6296 105.065 37.401 106.22 35.6956 106.22ZM32.5049 99.9853H37.4376C37.8044 99.9853 38.0061 99.8019 38.0061 99.4169C38.0061 98.2249 36.9975 96.923 35.6406 96.923C34.1002 96.923 32.9083 98.1516 32.5049 99.9853ZM39.9969 106L41.5372 105.395V92.6137H39.9969L42.344 91.2934V105.395L43.8844 106H39.9969ZM55.0443 106H48.8096L50.625 105.211V93.4022L48.8096 92.6137H55.356C57.6116 92.6137 59.4636 94.0073 59.4636 95.731C59.4636 97.2347 58.18 98.4266 56.438 98.8117V98.9951C58.4367 99.4352 59.8671 100.755 59.8854 102.424C59.9037 104.551 57.7399 106 55.0443 106ZM51.5052 92.9437V98.775H55.2093C57.1715 98.775 58.5101 97.5281 58.5101 95.731C58.5101 94.099 57.2448 92.9437 55.301 92.9437H51.5052ZM51.5052 99.0868V105.67H55.0076C57.3732 105.67 58.8952 104.46 58.8952 102.406C58.8952 100.37 57.3548 99.0868 55.0076 99.0868H51.5052ZM66.0368 106.22C63.6896 106.22 61.6358 104.038 61.6358 101.361C61.6358 98.775 63.6896 96.6662 66.0368 96.6662C68.3656 96.6662 70.4194 98.775 70.4194 101.361C70.4194 104.038 68.3656 106.22 66.0368 106.22ZM66.0368 105.927C67.9805 105.927 69.4842 104.093 69.4842 101.361C69.4842 98.7934 68.0539 96.9413 66.0368 96.9413C64.0746 96.9413 62.571 98.72 62.571 101.361C62.571 104.001 64.0013 105.927 66.0368 105.927ZM75.4407 106.22C74.0287 106.22 72.8735 105.175 72.8735 103.506V97.9132H71.4615L73.662 96.6662V103.433C73.662 104.716 74.6339 105.78 75.9175 105.78C76.7793 105.78 77.8979 105.138 78.9248 104.478V97.9132H77.5128L79.7133 96.6662V105.211H81.2904L78.9248 106.22V104.735C77.9163 105.377 76.5593 106.22 75.4407 106.22ZM85.4263 106.22C84.161 106.22 83.2625 105.468 83.2992 104.075L83.4642 97.6014H81.5571L83.2992 96.3545V95.1076L84.1244 94.5574V97.0146H87.4434V97.6014H84.1244V103.946C84.1244 105.065 84.8395 105.633 85.7381 105.633C86.6916 105.633 87.4984 105.211 88.1036 104.441C87.3701 105.597 86.4716 106.22 85.4263 106.22ZM91.1306 94.0623H89.6636V92.3936H91.1306V94.0623ZM88.6367 106L90.177 105.395V97.9132H88.6183L90.9655 96.6662V105.395L92.5975 106H88.6367ZM99.0293 110.474L100.845 109.869V104.735C99.8361 105.377 98.4975 106.22 97.3972 106.22C95.05 106.22 93.4914 104.295 93.4914 101.526C93.4914 98.665 95.1967 96.6662 97.7273 96.6662C98.8826 96.6662 100.111 97.2164 100.863 98.0049L101.633 96.5929V109.869L103.174 110.474H99.0293ZM97.9107 105.762C98.7359 105.762 99.8178 105.12 100.845 104.46V99.9486C100.606 98.1332 99.3227 96.923 97.7273 96.923C95.7285 96.923 94.3532 98.7567 94.3532 101.361C94.3532 103.965 95.8019 105.762 97.9107 105.762ZM107.478 106.22C106.066 106.22 104.91 105.175 104.91 103.506V97.9132H103.498L105.699 96.6662V103.433C105.699 104.716 106.671 105.78 107.954 105.78C108.816 105.78 109.935 105.138 110.962 104.478V97.9132H109.55L111.75 96.6662V105.211H113.327L110.962 106.22V104.735C109.953 105.377 108.596 106.22 107.478 106.22ZM118.536 106.22C116.079 106.22 114.374 104.405 114.374 101.526C114.374 98.665 116.134 96.6662 118.481 96.6662C120.462 96.6662 121.801 98.0599 121.801 100.15V100.26H115.309C115.254 100.59 115.217 100.957 115.217 101.324C115.217 103.855 116.574 105.597 118.701 105.597C120.242 105.597 121.415 104.68 121.984 102.938C121.47 105.065 120.242 106.22 118.536 106.22ZM115.346 99.9853H120.279C120.645 99.9853 120.847 99.8019 120.847 99.4169C120.847 98.2249 119.838 96.923 118.481 96.923C116.941 96.923 115.749 98.1516 115.346 99.9853Z" fill="#505E5D"/>
<path d="M48.9835 36.9911C48.9835 41.5118 49.0286 46.0337 48.9697 50.5544C48.9196 54.3937 47.8995 58.015 46.0022 61.3612C42.551 67.4479 37.4018 71.421 30.5821 73.2322C27.9116 73.9421 25.186 74.1465 22.429 73.9C16.3023 73.3524 11.0942 70.8759 6.82845 66.51C3.28828 62.8863 1.13785 58.5502 0.320793 53.5723C0.120288 52.3483 0.0162754 51.1169 0.0162754 49.8767C0.0162754 41.1748 -0.0313447 32.4728 0.0363259 23.7709C0.0776802 18.3024 1.91481 13.4076 5.35223 9.12228C7.86732 5.98665 10.9902 3.60799 14.7008 2.00363C17.2986 0.878718 20.0142 0.19733 22.8501 0.0437075C30.3778 -0.365125 36.7965 2.09531 42.1137 7.37668C42.754 8.01347 43.338 8.70106 43.8944 9.41218C46.6188 12.891 48.1138 16.7749 48.6802 20.2896C48.9008 21.6586 48.9998 23.0337 48.9998 24.4188C48.9973 28.61 48.9998 32.8011 48.9998 36.9923C48.9948 36.9923 48.9898 36.9923 48.9847 36.9923L48.9835 36.9911ZM25.7161 64.8313C25.8915 64.6554 25.899 64.4882 25.9354 64.3345C26.7637 60.8359 27.5895 57.3385 28.4154 53.8399C29.7801 48.0556 31.1448 42.2712 32.5107 36.4868C34.0032 30.1611 35.5007 23.8365 36.9845 17.5083C37.269 16.2967 37.6562 15.1024 37.7289 13.8499C37.7953 12.7113 37.4482 11.7537 36.4444 11.107C35.9694 10.801 35.4418 10.6089 34.8967 10.4615C33.9193 10.1964 32.918 10.0688 31.918 9.93127C31.834 9.92012 31.6698 9.95357 31.7062 9.78384C31.7337 9.6488 31.8653 9.7157 31.9443 9.7219C32.7024 9.78137 33.4618 9.84083 34.2188 9.91888C36.6549 10.1704 39.091 10.1716 41.5284 9.94614C41.853 9.9164 42.1889 9.94242 42.5134 9.83092C38.7239 5.03642 31.636 0.64209 22.6458 1.36808C16.0993 1.89708 10.7684 4.78493 6.47757 9.7888C7.3435 9.85694 8.11294 9.90897 8.87987 9.97711C11.519 10.2113 14.1519 10.1146 16.7835 9.85942C17.3537 9.80367 17.9252 9.76031 18.4966 9.71447C18.5618 9.70951 18.652 9.67978 18.667 9.79128C18.6821 9.89658 18.6044 9.90401 18.5292 9.91516C18.4164 9.93127 18.3024 9.94985 18.1896 9.96472C17.0768 10.1196 15.9615 10.2658 14.8925 10.6374C13.1707 11.2371 12.4551 12.357 12.6469 14.1546C12.7609 15.2238 13.0679 16.2546 13.3136 17.2965C15.1131 24.9466 16.9264 32.5942 18.7322 40.2431C20.637 48.3132 22.5381 56.3834 24.4429 64.4535C24.4692 64.5675 24.4805 64.6963 24.6283 64.8078V10.8406C24.6283 10.4632 24.8192 10.2744 25.201 10.2744C25.5452 10.2744 25.7173 10.4417 25.7173 10.7762C25.7173 28.6459 25.7173 46.5169 25.7173 64.3866C25.7173 64.5154 25.7173 64.6455 25.7173 64.8301L25.7161 64.8313ZM24.117 72.6673C24.0419 72.5793 24.013 72.5397 23.9792 72.5062C21.5744 70.1263 19.1696 67.7464 16.7635 65.3678C15.1983 63.8204 13.6344 62.273 12.0642 60.7331C11.92 60.5919 11.9363 60.5151 12.0742 60.3936C12.2609 60.2301 12.4501 60.0604 12.603 59.8671C12.7835 59.6379 12.895 59.6912 13.0792 59.8733C16.2109 62.9804 19.35 66.0801 22.4842 69.1823C22.5619 69.2591 22.6158 69.3607 22.6809 69.4512C22.7511 69.2827 22.6772 69.2034 22.6333 69.1142C21.9704 67.7725 21.3062 66.432 20.642 65.0915C15.5041 54.7022 10.3674 44.3129 5.23067 33.9236C5.10285 33.6659 4.84219 33.3648 4.89984 33.1542C4.96751 32.9114 5.38105 32.8532 5.64797 32.7231C6.07906 32.5137 5.98507 32.4691 6.20062 32.9052C12.0905 44.8109 17.9778 56.7166 23.8677 68.6223C23.9165 68.7202 23.9403 68.8367 24.0456 68.9098C24.0882 68.8007 24.0419 68.7078 24.018 68.6112C22.9666 64.1611 21.9165 59.7098 20.8638 55.2585C19.3914 49.0343 17.9164 42.8101 16.4452 36.5847C14.9953 30.4497 13.5542 24.3135 12.0942 18.181C11.7083 16.5593 11.3987 14.9166 10.8511 13.3345C10.499 12.3174 10.0015 11.4068 8.98764 10.8765C8.24953 10.49 7.44125 10.3426 6.64048 10.1592C6.34849 10.0923 6.18182 10.1716 5.99886 10.4132C2.95368 14.4631 1.36342 19.0098 1.34462 24.0558C1.3133 32.676 1.3346 41.2962 1.33711 49.9164C1.33711 51.6979 1.5514 53.4584 1.98875 55.1841C3.3384 60.5138 6.24448 64.8363 10.6782 68.1392C13.7923 70.4584 17.2986 71.8757 21.1521 72.448C22.1095 72.5905 23.0744 72.676 24.1158 72.6673H24.117ZM26.2437 68.9767C26.2599 68.9853 26.2775 68.9928 26.2938 69.0014C26.3376 68.9221 26.3853 68.8441 26.4254 68.7623C27.0344 67.5321 27.6434 66.3019 28.2512 65.0717C33.4756 54.5065 38.6988 43.94 43.9232 33.376C44.0548 33.1096 44.1425 32.7119 44.3568 32.6215C44.6037 32.5174 44.8982 32.8519 45.1902 32.9461C45.4997 33.0464 45.4997 33.184 45.3631 33.4602C39.5911 45.1132 33.8265 56.7699 28.0645 68.4278C28.0181 68.522 27.9229 68.6075 27.9893 68.8243C28.0795 68.6979 28.1284 68.6025 28.2023 68.5307C30.9681 65.7927 33.7363 63.056 36.5045 60.3206C36.7263 60.1025 36.9469 59.7222 37.1775 59.716C37.4431 59.7073 37.6311 60.1248 37.8817 60.323C38.1111 60.5039 38.0797 60.6241 37.8817 60.8211C33.9944 64.6542 30.1134 68.4947 26.2336 72.334C26.1484 72.4183 26.0331 72.4815 25.9955 72.6277C26.0419 72.6314 26.0807 72.6388 26.1183 72.6363C27.0745 72.5595 28.0269 72.4517 28.9668 72.2622C34.1348 71.219 38.4858 68.7512 41.952 64.8227C45.6388 60.6427 47.6088 55.7515 47.6514 50.1964C47.7165 41.6282 47.6689 33.0588 47.6764 24.4907C47.6777 22.9805 47.5687 21.4814 47.2867 19.9972C46.6225 16.506 45.2027 13.3432 43.0673 10.49C42.9658 10.355 42.8593 10.3042 42.6976 10.3451C42.3355 10.4367 41.9721 10.5247 41.6149 10.6374C40.7176 10.9224 40.1274 11.5146 39.7815 12.3669C39.5096 13.0384 39.3191 13.7334 39.1525 14.4346C38.1123 18.8029 37.0747 23.1725 36.0409 27.5433C34.5283 33.9384 33.0195 40.3348 31.5082 46.73C30.0608 52.855 28.6121 58.9788 27.1635 65.1039C26.8577 66.3961 26.5494 67.687 26.2424 68.9779L26.2437 68.9767Z" fill="#505E5D"/>
</svg>
