<svg width="192" height="36" viewBox="0 0 192 36" fill="none" xmlns="http://www.w3.org/2000/svg">
<path d="M73.2535 15.8838C73.2361 19.3375 72.0719 22.3782 69.8706 25.0166C67.4514 27.917 64.3666 29.7494 60.6589 30.4671C59.5456 30.6823 58.3841 30.8066 57.2547 30.7518C54.3062 30.6102 51.5836 29.6986 49.1337 28.0266C46.3616 26.134 44.3501 23.6426 43.2113 20.4749C42.5216 18.557 42.2704 16.5748 42.5029 14.5499C43.091 9.43752 45.819 5.74056 50.1615 3.14227C51.8349 2.14117 53.658 1.5063 55.5853 1.23097C59.4694 0.677627 63.0674 1.50229 66.3447 3.64615C69.221 5.52805 71.2954 8.07021 72.4729 11.3181C72.9714 12.6921 73.2428 14.2652 73.2521 15.8838H73.2535ZM58.4322 30.2707C60.4424 30.2774 62.3497 29.8617 64.1581 29.0303C67.5824 27.4559 70.0965 24.9685 71.5453 21.472C72.251 19.7679 72.6186 17.9822 72.4381 16.1204C72.3499 15.2169 72.3419 14.296 72.1441 13.4165C71.1524 9.01249 68.6156 5.74858 64.658 3.60071C62.1131 2.22003 59.3825 1.57714 56.4781 1.75089C55.8486 1.78832 55.2124 1.81906 54.5962 1.94336C50.2698 2.80946 46.9617 5.1244 44.7537 8.95769C43.7967 10.6177 43.3196 12.4355 43.1953 14.332C43.1405 15.1768 43.2287 16.0375 43.3129 16.8849C43.5187 18.9646 44.1429 20.924 45.2309 22.707C48.2422 27.6403 52.7585 29.9766 58.4335 30.272L58.4322 30.2707Z" fill="#505E5D"/>
<path d="M191.999 22.6643C191.499 25.7116 190.999 28.759 190.498 31.8104C190.45 31.7971 190.418 31.7957 190.415 31.7864C190.105 30.7799 189.311 30.526 188.386 30.5126C187.239 30.4966 186.093 30.5086 184.946 30.5086C182.485 30.5086 180.025 30.5086 177.564 30.5086C177.469 30.5086 177.374 30.4979 177.269 30.415C177.472 30.3816 177.676 30.3482 177.879 30.3148C178.097 30.2787 178.32 30.2613 178.534 30.2039C179.539 29.9339 179.935 29.4139 179.994 28.2979C180.005 28.0988 180.001 27.8983 180.001 27.6978C180.001 19.824 180.002 11.949 179.996 4.07521C179.996 3.713 179.971 3.34544 179.906 2.98858C179.752 2.15054 179.141 1.78833 178.379 1.61057C178.012 1.52369 177.64 1.45152 177.27 1.374C177.271 1.34058 177.273 1.30583 177.275 1.27242C177.398 1.27242 177.521 1.27242 177.645 1.27242C180.818 1.27242 183.992 1.27375 187.165 1.26974C187.464 1.26974 187.769 1.25638 188.061 1.19623C188.734 1.05723 189.25 0.711056 189.493 0C189.991 3.04204 190.491 6.08408 190.99 9.12612C190.947 9.13948 190.904 9.15151 190.861 9.16488C190.821 9.08201 190.769 9.00315 190.745 8.91627C190.3 7.35248 189.883 5.78067 189.405 4.22758C189.231 3.66221 188.946 3.12357 188.655 2.60498C188.347 2.05966 187.827 1.81507 187.203 1.81507C185.534 1.81239 183.863 1.80705 182.194 1.8164C181.264 1.82175 180.722 2.36707 180.721 3.29331C180.716 6.84058 180.716 10.3892 180.721 13.9364C180.721 14.868 181.254 15.408 182.187 15.4187C183.489 15.4321 184.792 15.4321 186.095 15.4187C187.532 15.404 188.392 14.3521 188.43 13.2909C188.432 13.2508 188.457 13.212 188.531 13.1759V18.1426C188.516 18.148 188.502 18.1547 188.488 18.16C188.466 18.0918 188.433 18.025 188.425 17.9542C188.309 16.8181 187.414 15.9734 186.268 15.96C184.866 15.944 183.462 15.948 182.059 15.9573C181.281 15.9627 180.736 16.4933 180.729 17.2779C180.713 18.9566 180.721 20.6367 180.72 22.3154C180.72 24.339 180.741 26.3639 180.71 28.3875C180.696 29.3792 181.288 29.9713 182.295 29.9673C184.221 29.9579 186.147 29.9539 188.073 29.97C188.843 29.9766 189.39 29.6625 189.761 28.9983C190.331 27.9825 190.632 26.8704 190.954 25.7664C191.234 24.8001 191.49 23.8257 191.757 22.8554C191.778 22.7779 191.814 22.703 191.844 22.6282C191.896 22.6402 191.948 22.6536 192 22.6656L191.999 22.6643Z" fill="#505E5D"/>
<path d="M77.6591 11.2111C78.5493 11.7351 79.4621 12.2015 80.4753 12.4528C81.7811 12.7763 83.0615 12.795 84.2898 12.1748C85.6478 11.4892 86.4457 10.3464 86.8066 8.90289C87.245 7.1453 87.0779 5.45453 85.9966 3.95089C85.0463 2.63035 83.7338 1.92197 82.0872 1.88054C81.0219 1.85381 79.9567 1.8391 78.8928 1.81237C77.901 1.78698 77.2969 2.4165 77.2996 3.38552C77.3183 11.5039 77.3076 19.6222 77.3183 27.7419C77.3183 28.191 77.3584 28.6614 77.4974 29.0825C77.7286 29.7801 78.3581 30.0247 79.0171 30.1744C79.4007 30.2613 79.7896 30.3295 80.1732 30.4671C78.0668 30.2373 75.9657 30.2185 73.8659 30.534C73.8619 30.4939 73.8565 30.4524 73.8525 30.4123C74.2295 30.3335 74.609 30.264 74.9833 30.1758C75.5821 30.0341 76.1488 29.8189 76.384 29.184C76.4936 28.8887 76.5738 28.5625 76.5738 28.2498C76.5872 22.4223 76.5885 16.5949 76.5885 10.7674C76.5885 8.35356 76.5885 5.94104 76.5791 3.52719C76.5751 2.46596 76.0833 1.85915 75.0421 1.6159C74.6505 1.52367 74.2535 1.45551 73.8592 1.30046C73.9474 1.29111 74.0357 1.27507 74.1239 1.27507C76.9521 1.27507 79.7816 1.21225 82.6057 1.30046C84.7429 1.36729 86.2706 2.51674 87.1955 4.43473C87.5698 5.21127 87.7181 6.03728 87.7529 6.91006C87.8104 8.34687 87.4842 9.65137 86.6342 10.8035C85.6398 12.1521 84.3192 12.946 82.6124 13.0275C82.5576 13.0302 82.5015 13.0382 82.448 13.0489C82.428 13.0529 82.4119 13.0717 82.3224 13.1318C82.4561 13.7787 82.551 14.4697 82.7434 15.1327C84.3513 20.6955 86.6623 25.9402 89.9622 30.7211C90.8738 32.0416 91.8909 33.286 93.2262 34.2136C93.7046 34.5464 94.2419 34.7923 94.7806 35.0944C94.7659 35.1291 94.7298 35.2146 94.695 35.2975C94.6416 35.2975 94.6068 35.3055 94.5774 35.2975C93.2395 34.8417 92.2184 33.9396 91.2854 32.9278C89.5479 31.0445 88.19 28.8953 86.9804 26.6499C84.8739 22.7377 83.1203 18.6772 81.8987 14.3975C81.7985 14.0474 81.7156 13.6905 81.6514 13.331C81.6073 13.0864 81.4857 12.9875 81.2438 12.958C80.2734 12.8418 79.3592 12.5424 78.5372 12.0104C78.2044 11.7952 77.913 11.5159 77.6016 11.2659C77.6203 11.2472 77.6404 11.2299 77.6591 11.2111Z" fill="#505E5D"/>
<path d="M142.718 16.3583C142.513 16.4198 142.31 16.4826 142.105 16.5441C141.067 16.8542 140.809 17.1937 140.808 18.295C140.804 20.352 140.808 22.4103 140.808 24.4673C140.808 26.4468 140.808 28.4262 140.808 30.407C140.808 30.4966 140.821 30.5875 140.802 30.673C140.789 30.7332 140.731 30.784 140.694 30.8388C140.649 30.788 140.574 30.7439 140.562 30.6864C140.473 30.2413 140.397 29.7936 140.316 29.3471C140.264 29.0558 140.209 28.7644 140.147 28.4303C140.018 28.5011 139.915 28.5546 139.815 28.6134C137.834 29.7762 135.701 30.4886 133.414 30.6957C129.82 31.0205 126.526 30.1103 123.53 28.1442C120.409 26.0966 118.226 23.3058 117.19 19.6984C116.911 18.7281 116.735 17.7043 116.681 16.6952C116.421 11.7538 118.439 7.80828 122.154 4.67135C124.365 2.80549 126.937 1.65337 129.798 1.23235C133.708 0.65762 137.318 1.53174 140.625 3.6756C140.71 3.73174 140.8 3.86005 140.801 3.95628C140.825 5.08969 140.832 6.22444 140.842 7.35919C140.842 7.38994 140.825 7.42201 140.79 7.53562C140.703 7.43404 140.603 7.37256 140.599 7.30439C140.452 4.74085 138.767 3.46977 136.624 2.60233C135.479 2.13854 134.281 1.86989 133.039 1.80707C132.524 1.78168 132.008 1.68544 131.492 1.68678C129.428 1.69079 127.438 2.07572 125.555 2.93915C122.467 4.35458 120.091 6.51983 118.582 9.58592C117.909 10.9506 117.496 12.3927 117.394 13.9151C117.077 18.6078 118.563 22.6335 121.939 25.9202C124.067 27.9919 126.636 29.2723 129.534 29.9058C130.877 30.1999 132.24 30.3148 133.609 30.232C135.886 30.0916 137.999 29.3966 139.951 28.2191C140.042 28.1643 140.125 28.0132 140.125 27.9063C140.133 24.6584 140.127 21.4106 140.129 18.1627C140.129 17.3795 139.709 16.9063 139.023 16.6257C138.773 16.5227 138.514 16.4412 138.272 16.2822C139.01 16.3517 139.748 16.4773 140.486 16.4773C141.222 16.4773 141.958 16.353 142.695 16.2822C142.702 16.3075 142.71 16.3316 142.716 16.357L142.718 16.3583Z" fill="#505E5D"/>
<path d="M24.0796 7.49817C24.0368 7.38189 23.9593 7.26694 23.9553 7.14932C23.9139 6.08007 23.4902 5.16852 22.7805 4.39465C21.8876 3.42162 20.7515 2.82284 19.5099 2.41919C18.184 1.98882 16.8234 1.79769 15.4266 1.72819C13.387 1.62794 11.4263 1.91932 9.54706 2.68651C5.67367 4.26767 2.87489 6.93146 1.41001 10.9011C1.03978 11.9035 0.819242 12.942 0.75375 14.0099C0.466387 18.6612 1.95934 22.6509 5.2981 25.9054C7.55156 28.1014 10.2795 29.4206 13.375 29.9913C16.8447 30.6302 20.106 30.0876 23.1641 28.3233C23.422 28.1749 23.533 28.0186 23.5316 27.7045C23.5169 24.6798 23.5236 21.6551 23.5236 18.6291C23.5236 17.3019 23.1747 16.8328 21.8983 16.4425C21.8101 16.4158 21.7219 16.385 21.6404 16.2968C23.12 16.5347 24.5915 16.5615 26.0617 16.2273C26.0684 16.2607 26.0738 16.2942 26.0805 16.3276C26.023 16.3583 25.9669 16.3997 25.9054 16.4185C25.7891 16.4545 25.6675 16.4733 25.5512 16.5093C24.5862 16.8047 24.1799 17.064 24.1852 18.3084C24.2039 22.3341 24.1919 26.3599 24.1919 30.3856V30.7732C23.9633 30.9269 23.9433 30.7692 23.9165 30.6222C23.7856 29.9031 23.6546 29.1854 23.5142 28.4182C23.3886 28.4904 23.279 28.5532 23.1707 28.6173C21.1899 29.7775 19.0568 30.4885 16.7699 30.693C13.1424 31.0178 9.8264 30.0796 6.8111 28.0827C3.97222 26.2035 1.93528 23.6667 0.785827 20.4509C0.106849 18.557 -0.144427 16.5962 0.0801172 14.5914C0.657516 9.46293 3.38412 5.75394 7.73734 3.14495C9.41073 2.14252 11.2338 1.50632 13.1611 1.23098C17.0813 0.670957 20.6967 1.53305 24.0088 3.68359C24.0956 3.73973 24.1825 3.87071 24.1839 3.96828C24.1986 5.10303 24.1972 6.23644 24.1999 7.37119C24.1999 7.40194 24.1825 7.43268 24.1732 7.46342C24.1424 7.47545 24.1104 7.48614 24.0796 7.49817Z" fill="#505E5D"/>
<path d="M105.195 30.5313C103.138 30.276 101.082 30.2453 99.0267 30.542C99.0174 30.5032 99.0094 30.4631 99 30.4244C99.0748 30.3883 99.1457 30.3362 99.2245 30.3175C99.4183 30.272 99.6148 30.2346 99.8113 30.2052C100.866 30.0528 101.406 29.3925 101.637 28.4008C102.321 25.459 103.018 22.5212 103.705 19.5808C104.857 14.6475 106.005 9.71286 107.154 4.77958C107.503 3.28262 107.849 1.78566 108.254 0.27533C108.34 0.617492 108.43 0.958318 108.51 1.30182C109.797 6.79379 111.084 12.2871 112.37 17.7791C113.157 21.1392 113.94 24.5007 114.73 27.8595C114.809 28.1923 114.913 28.5211 115.017 28.8472C115.253 29.5797 115.767 30.0047 116.509 30.1678C116.758 30.2226 117.01 30.26 117.259 30.3134C117.342 30.3308 117.419 30.3749 117.489 30.4698C115.421 30.2667 113.363 30.2613 111.306 30.53C111.303 30.4885 111.299 30.4484 111.296 30.407C111.613 30.3522 111.935 30.3148 112.247 30.2386C112.61 30.1504 112.982 30.0622 113.321 29.9111C113.95 29.6305 114.242 29.0263 114.098 28.35C113.851 27.1926 113.594 26.0378 113.327 24.8856C112.8 22.6121 112.271 20.3386 111.73 18.0691C111.501 17.1108 111.026 16.7566 110.055 16.7566C108.797 16.7566 107.538 16.7566 106.28 16.7566C105.493 16.7566 104.96 17.1816 104.779 17.9515C104.007 21.2689 103.234 24.5876 102.47 27.9076C102.406 28.1856 102.372 28.4797 102.388 28.763C102.424 29.446 102.837 29.8617 103.465 30.0394C103.985 30.1865 104.525 30.2667 105.056 30.3763C105.105 30.387 105.155 30.403 105.203 30.4164L105.196 30.5326L105.195 30.5313ZM108.242 3.15297C108.201 3.25455 108.189 3.2746 108.184 3.29598C107.268 7.21347 106.35 11.1296 105.438 15.0485C105.236 15.9159 105.493 16.226 106.382 16.226C107.628 16.226 108.873 16.2287 110.119 16.2233C110.283 16.2233 110.452 16.2006 110.612 16.1632C110.879 16.1017 111.039 15.9212 111.052 15.6486C111.063 15.4521 111.056 15.2463 111.013 15.0551C110.271 11.8353 109.524 8.61554 108.776 5.39707C108.609 4.678 108.435 3.9616 108.242 3.15163V3.15297Z" fill="#505E5D"/>
<path d="M161.339 30.53C159.283 30.2627 157.226 30.268 155.169 30.5246C155.167 30.4859 155.163 30.4458 155.16 30.407C155.477 30.3522 155.799 30.3175 156.109 30.2373C156.503 30.137 156.908 30.0421 157.273 29.8684C157.721 29.6559 158.022 29.2709 157.945 28.7483C157.81 27.8314 157.658 26.9146 157.454 26.0124C156.857 23.3807 156.233 20.7543 155.616 18.1266C155.473 17.5158 155.196 16.9999 154.54 16.8061C154.394 16.7633 154.234 16.7593 154.08 16.7579C152.766 16.7539 151.452 16.7539 150.138 16.7566C149.373 16.7566 148.845 17.1549 148.67 17.8967C147.889 21.2127 147.116 24.5314 146.344 27.8502C146.309 28.0012 146.289 28.1562 146.269 28.3099C146.151 29.2161 146.503 29.7762 147.381 30.0555C147.654 30.1424 147.938 30.1958 148.22 30.2546C148.498 30.3121 148.781 30.3562 149.059 30.4618C146.999 30.2907 144.942 30.2493 142.888 30.542C142.878 30.5033 142.869 30.4645 142.861 30.4257C142.936 30.3896 143.008 30.3389 143.088 30.3188C143.303 30.268 143.521 30.2226 143.739 30.1905C144.704 30.0435 145.247 29.4554 145.467 28.5372C145.892 26.7622 146.316 24.9872 146.73 23.2096C147.861 18.3725 148.986 13.5355 150.113 8.69841C150.745 5.98383 151.377 3.26792 152.011 0.553342C152.034 0.458446 152.063 0.364885 152.114 0.184448C152.383 1.32454 152.631 2.37643 152.877 3.42831C154 8.23195 155.121 13.0369 156.244 17.8406C157.012 21.1259 157.784 24.4098 158.556 27.6938C158.624 27.9852 158.706 28.2725 158.781 28.5612C159.039 29.5743 159.708 30.1076 160.728 30.2453C160.943 30.2747 161.155 30.3362 161.368 30.3816C161.36 30.4311 161.352 30.4805 161.344 30.5286L161.339 30.53ZM152.109 3.11288C152.058 3.29866 152.028 3.39222 152.006 3.48845C151.323 6.40486 150.64 9.32259 149.957 12.239C149.732 13.1973 149.504 14.1543 149.284 15.1126C149.112 15.8691 149.39 16.2233 150.157 16.2247C151.459 16.2287 152.761 16.2287 154.063 16.2247C154.772 16.222 155.064 15.8611 154.909 15.1795C154.615 13.8856 154.314 12.5932 154.013 11.3021C153.385 8.59951 152.755 5.89829 152.109 3.11421V3.11288Z" fill="#505E5D"/>
<path d="M170.327 1.247C172.382 1.55976 174.435 1.51298 176.488 1.24834C176.496 1.28844 176.502 1.32987 176.51 1.36997C176.407 1.40472 176.307 1.44883 176.203 1.47288C175.944 1.53169 175.682 1.57446 175.422 1.63327C174.562 1.82975 174.118 2.43254 173.92 3.23983C173.51 4.90386 173.113 6.57191 172.72 8.24129C171.61 12.958 170.508 17.6748 169.402 22.3929C168.703 25.3761 168.006 28.3594 167.307 31.3426C167.296 31.3907 167.276 31.4375 167.226 31.5805C166.993 30.5928 166.781 29.7066 166.574 28.8192C165.518 24.3069 164.464 19.7933 163.408 15.2797C162.527 11.5212 161.646 7.76279 160.76 4.00569C160.675 3.6408 160.556 3.2826 160.445 2.9244C160.217 2.18127 159.692 1.77228 158.952 1.61189C158.623 1.54105 158.294 1.47021 157.965 1.40071C157.971 1.36462 157.975 1.32853 157.98 1.29111C159.007 1.35259 160.033 1.46085 161.06 1.46085C162.089 1.46085 163.119 1.35259 164.148 1.29245C164.152 1.32051 164.155 1.34858 164.159 1.37531C163.83 1.43145 163.5 1.47823 163.174 1.5464C162.904 1.60253 162.63 1.66 162.371 1.7549C161.559 2.05296 161.209 2.68382 161.391 3.54858C161.621 4.6419 161.868 5.7312 162.122 6.81917C163.225 11.548 164.331 16.2768 165.438 21.0042C165.922 23.0719 166.412 25.1382 166.894 27.2072C166.942 27.4131 166.997 27.6283 167.24 27.6256C167.483 27.6229 167.534 27.4064 167.582 27.2019C168.735 22.2579 169.893 17.3139 171.049 12.37C171.704 9.56984 172.36 6.76972 173.012 3.96826C173.061 3.76377 173.095 3.55526 173.114 3.34542C173.185 2.51808 172.843 2.0035 172.033 1.73619C171.751 1.64263 171.455 1.58649 171.163 1.52501C170.883 1.46754 170.601 1.4261 170.321 1.37665C170.322 1.33254 170.325 1.28977 170.326 1.24567L170.327 1.247Z" fill="#505E5D"/>
<path d="M41.9374 22.6282C41.4362 25.6782 40.935 28.7283 40.4338 31.777C40.2266 31.2117 39.8484 30.8227 39.2857 30.6623C38.9382 30.5634 38.5639 30.5166 38.2017 30.5153C34.6732 30.5046 31.1433 30.5086 27.6147 30.5086H27.2244C27.2204 30.4779 27.2151 30.4471 27.2111 30.4177C27.4129 30.383 27.6134 30.3509 27.8152 30.3148C28.0758 30.268 28.3405 30.2306 28.5971 30.1691C29.3736 29.9833 29.7719 29.4554 29.8762 28.6922C29.9216 28.3634 29.9457 28.0279 29.9457 27.6951C29.9497 19.8321 29.9497 11.969 29.9457 4.10597C29.9457 3.75445 29.9176 3.39892 29.8628 3.05275C29.7171 2.1412 29.0569 1.78701 28.2456 1.61459C27.8941 1.53975 27.5399 1.47559 27.187 1.40609C27.191 1.36867 27.1964 1.33124 27.2004 1.29382C28.2242 1.35396 29.248 1.46223 30.2732 1.46223C31.3063 1.46223 32.3395 1.35396 33.3713 1.29248C33.3753 1.31921 33.3807 1.34594 33.3847 1.37267C33.1134 1.42881 32.8434 1.48361 32.5721 1.54108C32.4103 1.57583 32.2459 1.60657 32.0882 1.65469C31.0978 1.95676 30.7276 2.42456 30.6781 3.45238C30.6514 4.01775 30.6314 4.58446 30.6314 5.15116C30.6287 12.8471 30.6287 20.5431 30.6327 28.2391C30.6327 28.5024 30.6501 28.7778 30.7236 29.029C30.892 29.6144 31.3959 29.9566 32.1109 29.9606C34.1265 29.9726 36.1407 29.9646 38.1563 29.9646C38.8486 29.9646 39.3859 29.6452 39.6559 29.0357C40.0716 28.0988 40.4458 27.1378 40.7626 26.1621C41.1034 25.1115 41.3547 24.0316 41.6501 22.9663C41.6861 22.8367 41.7476 22.7137 41.7971 22.5868C41.8452 22.6015 41.892 22.6162 41.9401 22.6309L41.9374 22.6282Z" fill="#505E5D"/>
<path d="M92.1027 1.24969C94.1556 1.53973 96.21 1.50765 98.2629 1.25638C98.2683 1.2938 98.2723 1.32989 98.2776 1.36731C98.0103 1.42345 97.7417 1.47825 97.4757 1.53839C97.2498 1.59052 97.0213 1.6373 96.8007 1.70814C95.9239 1.99149 95.6513 2.52612 95.5564 3.36549C95.5296 3.60741 95.5403 3.85467 95.5403 4.09927C95.5403 11.961 95.5403 19.824 95.5417 27.6858C95.5417 28.0172 95.555 28.3514 95.5925 28.6815C95.6954 29.573 96.2688 30.006 97.0948 30.1758C97.4877 30.256 97.882 30.3295 98.271 30.4658C96.21 30.2493 94.1543 30.2172 92.1013 30.5327C92.096 30.4912 92.0906 30.4498 92.0853 30.4084C92.362 30.3536 92.6413 30.3068 92.9166 30.2426C93.2174 30.1718 93.5248 30.1116 93.8108 29.998C94.5593 29.7026 94.7518 29.0531 94.8146 28.3353C94.8253 28.2137 94.8213 28.0907 94.8213 27.9691C94.8213 19.8628 94.8213 11.7552 94.8106 3.64884C94.8106 3.29198 94.729 2.91774 94.6034 2.58226C94.3655 1.94471 93.7694 1.76561 93.1799 1.61993C92.9006 1.55042 92.6119 1.52236 92.3299 1.46889C92.243 1.45285 92.1615 1.41008 92.0786 1.38068C92.0866 1.33791 92.096 1.2938 92.104 1.25103L92.1027 1.24969Z" fill="#505E5D"/>
</svg>
